<svg id="Layer_1" data-name="Layer 1" xmlns="http://www.w3.org/2000/svg" viewBox="0 0 250 56"><defs><style>.cls-1{fill:#fff;}</style></defs><title>logo</title><path class="cls-1" d="M178.83,21.56q0,5.62-3.32,8.69t-9.42,3.06h-2.55V44.44h-9.06V10.89H166.1q6.36,0,9.55,2.78T178.83,21.56Zm-15.28,4.36h1.65a4.51,4.51,0,0,0,3.25-1.15,4.16,4.16,0,0,0,1.21-3.17q0-3.4-3.76-3.4h-2.34Z"/><path class="cls-1" d="M193.24,32.23V44.44h-9.06V10.89h11q13.68,0,13.68,9.91,0,5.83-5.69,9l9.78,14.62H202.65l-7.11-12.21Zm0-6.82h1.7q4.75,0,4.75-4.2,0-3.47-4.66-3.47h-1.79Z"/><path class="cls-1" d="M22.16,32.6H8.52L3.84,44.44H1.25L14.74,10.75h1.49L29.45,44.44H26.81ZM9.37,30.49h12L16.81,18.39q-.57-1.42-1.38-3.95a36.94,36.94,0,0,1-1.35,4Z"/><path class="cls-1" d="M59.68,27.34q0,8.45-4.43,12.77t-13,4.33h-8V10.89h9.07q8,0,12.22,4.2T59.68,27.34Zm-2.55.09q0-7.21-3.66-10.84T42.72,13H36.55V42.37H42.1Q57.13,42.37,57.13,27.43Z"/><path class="cls-1" d="M82.14,44.44l-12.51-31h-.18q.18,2.85.18,5.83V44.44H67.39V10.89H71L82.9,40.4H83L94.93,10.89h3.53V44.44H96.1V19q0-2.66.28-5.51h-.18L83.64,44.44Z"/><path class="cls-1" d="M107.94,44.44V10.89h2.34V44.44Z"/><path class="cls-1" d="M144.17,44.44h-2.36L121.94,14.65h-.18q.27,5.32.28,8V44.44h-2.25V10.89h2.34L142,40.63h.14q-.2-4.13-.21-7.85V10.89h2.27Z"/><path class="cls-1" d="M226.75,42.13c-.11-2,.73-3.44.66-5.86s-.77-3.55-1.46-6.59c-.65-2.83.13-8.06,5.26-9.69a5.52,5.52,0,0,1-1.29-2.6,5.78,5.78,0,0,1,1.4-5.37H234a4.61,4.61,0,0,0-3.29,4.63s1.34-5.12,9.18-4a17.09,17.09,0,0,0-18.44,1.2c-3.84.82-5.06,2.22-5.06,2.22a17,17,0,0,1,6.36-1.35H223a6.16,6.16,0,0,1,5.94,4.09,17.32,17.32,0,0,0-8.7-2.31s5.46.73,8,3c0,0-1.43,1.6-4.78.78a10.28,10.28,0,0,1-5.12-3.43A17.09,17.09,0,0,0,228.7,44.4C227.75,43.88,226.81,43.12,226.75,42.13Z"/><path class="cls-1" d="M241.82,13.82a27,27,0,0,1-4.94,4c-2.25,1.21-4.79,1-5.45.09,0,0,4.15-3.75,8.24-3.64a9.61,9.61,0,0,0-4.79.81,19.89,19.89,0,0,0-4.06,2.23,4.29,4.29,0,0,0,1,2.54l.58-.12c6.22-1.13,9.81,3.29,10.07,7.54s-.26,8.31-2.89,11.9a13.81,13.81,0,0,1-7.13,5.51,17.09,17.09,0,0,0,9.35-30.82Z"/><path class="cls-1" d="M239.56,33.51l-1.77.36c-.2,7.91-8,9.8-8,9.8C236.91,42.61,239,37.43,239.56,33.51Z"/><path class="cls-1" d="M239.63,28.91l-2.24,1.25a15.6,15.6,0,0,1,.4,2.87l1.88-.42A17.42,17.42,0,0,0,239.63,28.91Z"/></svg>