<svg id="Layer_1" data-name="Layer 1" xmlns="http://www.w3.org/2000/svg" viewBox="0 0 56 56"><defs><style>.cls-1{fill:#fff;}</style></defs><title>logo-square</title><path class="cls-1" d="M20.21,51.4c-.18-3.23,1.17-5.52,1.06-9.4S20,36.31,18.92,31.43c-1-4.54.22-12.94,8.44-15.55a8.85,8.85,0,0,1-2.07-4.17A9.27,9.27,0,0,1,27.54,3.1h4.37s-5.65,1.64-5.27,7.43c0,0,2.16-8.21,14.73-6.49A27.41,27.41,0,0,0,11.8,6C5.64,7.28,3.67,9.53,3.67,9.53a27.29,27.29,0,0,1,10.2-2.17h.27c6.56.18,9.27,5.13,9.53,6.56a27.78,27.78,0,0,0-14-3.7s8.76,1.18,12.86,4.89c0,0-2.29,2.57-7.66,1.25a16.5,16.5,0,0,1-8.21-5.5A27.41,27.41,0,0,0,23.35,55C21.82,54.2,20.3,53,20.21,51.4Z"/><path class="cls-1" d="M44.38,6c-1.35,1.33-5,4.82-7.93,6.37-3.61,1.94-7.69,1.59-8.75.15,0,0,6.66-6,13.21-5.84a15.42,15.42,0,0,0-7.69,1.29,31.9,31.9,0,0,0-6.52,3.58,6.88,6.88,0,0,0,1.68,4.07l.94-.2c10-1.82,15.74,5.28,16.15,12.1s-.41,13.33-4.64,19.08c-4,5.39-7.15,7.22-11.44,8.83A27.42,27.42,0,0,0,44.38,6Z"/><path class="cls-1" d="M40.77,37.57l-2.83.58c-.32,12.69-12.79,15.71-12.79,15.71C36.51,52.16,39.88,43.86,40.77,37.57Z"/><path class="cls-1" d="M40.87,30.19l-3.59,2a25,25,0,0,1,.64,4.61l3-.68A28,28,0,0,0,40.87,30.19Z"/></svg>